<?xml version="1.0" encoding="utf-8" standalone="no"?>
<!DOCTYPE svg PUBLIC "-//W3C//DTD SVG 1.1//EN"
  "http://www.w3.org/Graphics/SVG/1.1/DTD/svg11.dtd">
<svg xmlns:xlink="http://www.w3.org/1999/xlink" width="720pt" height="576pt" viewBox="0 0 720 576" xmlns="http://www.w3.org/2000/svg" version="1.1">
 <metadata>
  <rdf:RDF xmlns:dc="http://purl.org/dc/elements/1.1/" xmlns:cc="http://creativecommons.org/ns#" xmlns:rdf="http://www.w3.org/1999/02/22-rdf-syntax-ns#">
   <cc:Work>
    <dc:type rdf:resource="http://purl.org/dc/dcmitype/StillImage"/>
    <dc:date>2026-08-24T16:04:42.126477</dc:date>
    <dc:format>image/svg+xml</dc:format>
    <dc:creator>
     <cc:Agent>
      <dc:title>Matplotlib v3.11.1, https://matplotlib.org/</dc:title>
     </cc:Agent>
    </dc:creator>
   </cc:Work>
  </rdf:RDF>
 </metadata>
 <defs>
  <style type="text/css">*{stroke-linejoin: round; stroke-linecap: butt}</style>
 </defs>
 <g id="figure_1">
  <g id="patch_1">
   <path d="M 0 576 
L 720 576 
L 720 0 
L 0 0 
z
" style="fill: #ffffff"/>
  </g>
  <g id="axes_1">
   <g id="patch_2">
    <path d="M 321.674723 250.213623 
Q 381.130436 352.734222 440.025254 454.287661 
" clip-path="url(#p0f0fcebde9)" style="fill: none; stroke: #000000; stroke-linecap: round"/>
    <path d="M 439.748647 449.824087 
L 440.025254 454.287661 
L 436.288431 451.830802 
z
" clip-path="url(#p0f0fcebde9)" style="stroke: #000000; stroke-linecap: round"/>
   </g>
   <g id="patch_3">
    <path d="M 295.599444 211.343775 
Q 255.479121 159.244026 216.040942 108.030099 
" clip-path="url(#p0f0fcebde9)" style="fill: none; stroke: #000000; stroke-linecap: round"/>
    <path d="M 216.896843 112.419567 
L 216.040942 108.030099 
L 220.066057 109.979058 
z
" clip-path="url(#p0f0fcebde9)" style="stroke: #000000; stroke-linecap: round"/>
   </g>
   <g id="patch_4">
    <path d="M 289.856786 217.766501 
Q 240.495672 187.833485 192.09055 158.480192 
" clip-path="url(#p0f0fcebde9)" style="fill: none; stroke: #000000; stroke-linecap: round"/>
    <path d="M 194.473774 162.264401 
L 192.09055 158.480192 
L 196.547852 158.844138 
z
" clip-path="url(#p0f0fcebde9)" style="stroke: #000000; stroke-linecap: round"/>
   </g>
   <g id="patch_5">
    <path d="M 286.556185 232.072413 
Q 190.656373 240.883922 95.869906 249.593134 
" clip-path="url(#p0f0fcebde9)" style="fill: none; stroke: #000000; stroke-linecap: round"/>
    <path d="M 100.036122 251.218757 
L 95.869906 249.593134 
L 99.670134 247.235536 
z
" clip-path="url(#p0f0fcebde9)" style="stroke: #000000; stroke-linecap: round"/>
   </g>
   <g id="patch_6">
    <path d="M 436.696998 126.972145 
Q 442.974471 114.84522 448.737975 103.711188 
" clip-path="url(#p0f0fcebde9)" style="fill: none; stroke: #000000; stroke-linecap: round"/>
    <path d="M 445.123005 106.344055 
L 448.737975 103.711188 
L 448.675286 108.182885 
z
" clip-path="url(#p0f0fcebde9)" style="stroke: #000000; stroke-linecap: round"/>
   </g>
   <g id="patch_7">
    <path d="M 449.152179 151.003447 
Q 522.944341 161.189199 595.62897 171.222075 
" clip-path="url(#p0f0fcebde9)" style="fill: none; stroke: #000000; stroke-linecap: round"/>
    <path d="M 591.940013 168.693914 
L 595.62897 171.222075 
L 591.393067 172.656344 
z
" clip-path="url(#p0f0fcebde9)" style="stroke: #000000; stroke-linecap: round"/>
   </g>
   <g id="patch_8">
    <path d="M 403.106717 153.229178 
Q 273.096893 184.193978 144.17468 214.899739 
" clip-path="url(#p0f0fcebde9)" style="fill: none; stroke: #000000; stroke-linecap: round"/>
    <path d="M 148.529221 215.91855 
L 144.17468 214.899739 
L 147.602453 212.027393 
z
" clip-path="url(#p0f0fcebde9)" style="stroke: #000000; stroke-linecap: round"/>
   </g>
   <g id="patch_9">
    <path d="M 354.806683 80.757821 
Q 476.33139 123.757771 596.802099 166.384776 
" clip-path="url(#p0f0fcebde9)" style="fill: none; stroke: #000000; stroke-linecap: round"/>
    <path d="M 593.698341 163.165042 
L 596.802099 166.384776 
L 592.364057 166.935942 
z
" clip-path="url(#p0f0fcebde9)" style="stroke: #000000; stroke-linecap: round"/>
   </g>
   <g id="patch_10">
    <path d="M 313.444062 86.321675 
Q 226.485237 146.764989 140.444458 206.570188 
" clip-path="url(#p0f0fcebde9)" style="fill: none; stroke: #000000; stroke-linecap: round"/>
    <path d="M 144.870456 205.929448 
L 140.444458 206.570188 
L 142.587465 202.644946 
z
" clip-path="url(#p0f0fcebde9)" style="stroke: #000000; stroke-linecap: round"/>
   </g>
   <g id="patch_11">
    <path d="M 368.005539 232.745537 
Q 392.459299 364.057018 416.70837 494.269361 
" clip-path="url(#p0f0fcebde9)" style="fill: none; stroke: #000000; stroke-linecap: round"/>
    <path d="M 417.942248 489.97081 
L 416.70837 494.269361 
L 414.009855 490.703128 
z
" clip-path="url(#p0f0fcebde9)" style="stroke: #000000; stroke-linecap: round"/>
   </g>
   <g id="patch_12">
    <path d="M 384.045192 197.997475 
Q 447.115426 161.745323 509.216342 126.050326 
" clip-path="url(#p0f0fcebde9)" style="fill: none; stroke: #000000; stroke-linecap: round"/>
    <path d="M 504.751733 126.309694 
L 509.216342 126.050326 
L 506.745071 129.777633 
z
" clip-path="url(#p0f0fcebde9)" style="stroke: #000000; stroke-linecap: round"/>
   </g>
   <g id="patch_13">
    <path d="M 351.537335 229.726541 
Q 280.727653 346.297971 210.498411 461.913844 
" clip-path="url(#p0f0fcebde9)" style="fill: none; stroke: #000000; stroke-linecap: round"/>
    <path d="M 214.284408 459.533461 
L 210.498411 461.913844 
L 210.865703 457.456817 
z
" clip-path="url(#p0f0fcebde9)" style="stroke: #000000; stroke-linecap: round"/>
   </g>
   <g id="patch_14">
    <path d="M 527.973375 378.403967 
Q 350.93891 397.375711 175.016114 416.228323 
" clip-path="url(#p0f0fcebde9)" style="fill: none; stroke: #000000; stroke-linecap: round"/>
    <path d="M 179.20645 417.790721 
L 175.016114 416.228323 
L 178.780233 413.813493 
z
" clip-path="url(#p0f0fcebde9)" style="stroke: #000000; stroke-linecap: round"/>
   </g>
   <g id="patch_15">
    <path d="M 567.334659 358.803976 
Q 577.384334 348.092394 586.669034 338.196172 
" clip-path="url(#p0f0fcebde9)" style="fill: none; stroke: #000000; stroke-linecap: round"/>
    <path d="M 582.473612 339.744862 
L 586.669034 338.196172 
L 585.390733 342.481723 
z
" clip-path="url(#p0f0fcebde9)" style="stroke: #000000; stroke-linecap: round"/>
   </g>
   <g id="patch_16">
    <path d="M 473.660846 341.978685 
Q 538.51232 368.603195 602.329528 394.803092 
" clip-path="url(#p0f0fcebde9)" style="fill: none; stroke: #000000; stroke-linecap: round"/>
    <path d="M 599.388801 391.4338 
L 602.329528 394.803092 
L 597.869659 395.134098 
z
" clip-path="url(#p0f0fcebde9)" style="stroke: #000000; stroke-linecap: round"/>
   </g>
   <g id="patch_17">
    <path d="M 428.579398 334.831565 
Q 274.570148 346.426947 121.675776 357.938389 
" clip-path="url(#p0f0fcebde9)" style="fill: none; stroke: #000000; stroke-linecap: round"/>
    <path d="M 125.814642 359.632434 
L 121.675776 357.938389 
L 125.514331 355.643723 
z
" clip-path="url(#p0f0fcebde9)" style="stroke: #000000; stroke-linecap: round"/>
   </g>
   <g id="patch_18">
    <path d="M 471.597292 345.889705 
Q 514.509625 373.906943 556.48579 401.312962 
" clip-path="url(#p0f0fcebde9)" style="fill: none; stroke: #000000; stroke-linecap: round"/>
    <path d="M 554.229835 397.451528 
L 556.48579 401.312962 
L 552.043071 400.800866 
z
" clip-path="url(#p0f0fcebde9)" style="stroke: #000000; stroke-linecap: round"/>
   </g>
   <g id="patch_19">
    <path d="M 380.614859 151.410746 
Q 356.324215 316.98447 332.195856 481.452 
" clip-path="url(#p0f0fcebde9)" style="fill: none; stroke: #000000; stroke-linecap: round"/>
    <path d="M 334.755284 477.784667 
L 332.195856 481.452 
L 330.797646 477.204058 
z
" clip-path="url(#p0f0fcebde9)" style="stroke: #000000; stroke-linecap: round"/>
   </g>
   <g id="patch_20">
    <path d="M 104.611421 393.963851 
Q 122.349856 416.883111 139.403993 438.918212 
" clip-path="url(#p0f0fcebde9)" style="fill: none; stroke: #000000; stroke-linecap: round"/>
    <path d="M 138.537407 434.53084 
L 139.403993 438.918212 
L 135.374144 436.979058 
z
" clip-path="url(#p0f0fcebde9)" style="stroke: #000000; stroke-linecap: round"/>
   </g>
   <g id="patch_21">
    <path d="M 98.706939 353.534569 
Q 145.653477 231.987537 192.197187 111.483448 
" clip-path="url(#p0f0fcebde9)" style="fill: none; stroke: #000000; stroke-linecap: round"/>
    <path d="M 188.890313 114.494193 
L 192.197187 111.483448 
L 192.621658 115.935394 
z
" clip-path="url(#p0f0fcebde9)" style="stroke: #000000; stroke-linecap: round"/>
   </g>
   <g id="patch_22">
    <path d="M 98.041242 353.29078 
Q 130.667564 260.575252 162.922761 168.914364 
" clip-path="url(#p0f0fcebde9)" style="fill: none; stroke: #000000; stroke-linecap: round"/>
    <path d="M 159.708386 172.023672 
L 162.922761 168.914364 
L 163.481582 173.351448 
z
" clip-path="url(#p0f0fcebde9)" style="stroke: #000000; stroke-linecap: round"/>
   </g>
   <g id="patch_23">
    <path d="M 111.255197 385.858399 
Q 231.349144 445.581501 350.442015 504.806764 
" clip-path="url(#p0f0fcebde9)" style="fill: none; stroke: #000000; stroke-linecap: round"/>
    <path d="M 347.751013 501.234859 
L 350.442015 504.806764 
L 345.969889 504.816423 
z
" clip-path="url(#p0f0fcebde9)" style="stroke: #000000; stroke-linecap: round"/>
   </g>
   <g id="patch_24">
    <path d="M 304.113707 219.776975 
Q 307.01161 224.851814 309.355102 228.955761 
" clip-path="url(#p0f0fcebde9)" style="fill: none; stroke: #000000; stroke-linecap: round"/>
    <path d="M 309.108362 224.490437 
L 309.355102 228.955761 
L 305.634799 226.473959 
z
" clip-path="url(#p0f0fcebde9)" style="stroke: #000000; stroke-linecap: round"/>
   </g>
   <g id="patch_25">
    <path d="M 272.551249 211.762458 
Q 191.229563 262.135592 110.858339 311.919981 
" clip-path="url(#p0f0fcebde9)" style="fill: none; stroke: #000000; stroke-linecap: round"/>
    <path d="M 115.311997 311.51386 
L 110.858339 311.919981 
L 113.205637 308.113383 
z
" clip-path="url(#p0f0fcebde9)" style="stroke: #000000; stroke-linecap: round"/>
   </g>
   <g id="patch_26">
    <path d="M 315.869281 197.641163 
Q 456.227565 186.997904 595.471016 176.439183 
" clip-path="url(#p0f0fcebde9)" style="fill: none; stroke: #000000; stroke-linecap: round"/>
    <path d="M 591.331242 174.747357 
L 595.471016 176.439183 
L 591.633691 178.735906 
z
" clip-path="url(#p0f0fcebde9)" style="stroke: #000000; stroke-linecap: round"/>
   </g>
   <g id="patch_27">
    <path d="M 307.558104 217.381655 
Q 409.756827 339.211542 511.237011 460.184866 
" clip-path="url(#p0f0fcebde9)" style="fill: none; stroke: #000000; stroke-linecap: round"/>
    <path d="M 510.198551 455.83497 
L 511.237011 460.184866 
L 507.134017 458.405697 
z
" clip-path="url(#p0f0fcebde9)" style="stroke: #000000; stroke-linecap: round"/>
   </g>
   <g id="patch_28">
    <path d="M 534.432921 163.204311 
Q 491.784096 157.148639 450.242201 151.25014 
" clip-path="url(#p0f0fcebde9)" style="fill: none; stroke: #000000; stroke-linecap: round"/>
    <path d="M 453.921321 153.792596 
L 450.242201 151.25014 
L 454.483637 149.832318 
z
" clip-path="url(#p0f0fcebde9)" style="stroke: #000000; stroke-linecap: round"/>
   </g>
   <g id="patch_29">
    <path d="M 556.937277 189.944384 
Q 554.469626 271.204367 552.035911 351.34683 
" clip-path="url(#p0f0fcebde9)" style="fill: none; stroke: #000000; stroke-linecap: round"/>
    <path d="M 554.156402 347.40938 
L 552.035911 351.34683 
L 550.158246 347.287966 
z
" clip-path="url(#p0f0fcebde9)" style="stroke: #000000; stroke-linecap: round"/>
   </g>
   <g id="patch_30">
    <path d="M 545.085163 186.30284 
Q 504.806987 249.784936 465.127789 312.322986 
" clip-path="url(#p0f0fcebde9)" style="fill: none; stroke: #000000; stroke-linecap: round"/>
    <path d="M 468.959525 310.01695 
L 465.127789 312.322986 
L 465.582002 307.873976 
z
" clip-path="url(#p0f0fcebde9)" style="stroke: #000000; stroke-linecap: round"/>
   </g>
   <g id="patch_31">
    <path d="M 558.613248 189.93701 
Q 563.548401 309.911419 568.437602 428.768739 
" clip-path="url(#p0f0fcebde9)" style="fill: none; stroke: #000000; stroke-linecap: round"/>
    <path d="M 570.271511 424.689919 
L 568.437602 428.768739 
L 566.274891 424.85432 
z
" clip-path="url(#p0f0fcebde9)" style="stroke: #000000; stroke-linecap: round"/>
   </g>
   <g id="patch_32">
    <path d="M 515.536699 215.961412 
Q 571.729566 246.069222 626.936941 275.649012 
" clip-path="url(#p0f0fcebde9)" style="fill: none; stroke: #000000; stroke-linecap: round"/>
    <path d="M 624.355691 271.997006 
L 626.936941 275.649012 
L 622.466587 275.522809 
z
" clip-path="url(#p0f0fcebde9)" style="stroke: #000000; stroke-linecap: round"/>
   </g>
   <g id="patch_33">
    <path d="M 475.578699 191.544608 
Q 439.442885 166.547738 404.22655 142.186917 
" clip-path="url(#p0f0fcebde9)" style="fill: none; stroke: #000000; stroke-linecap: round"/>
    <path d="M 406.378383 146.107327 
L 404.22655 142.186917 
L 408.653978 142.817696 
z
" clip-path="url(#p0f0fcebde9)" style="stroke: #000000; stroke-linecap: round"/>
   </g>
   <g id="patch_34">
    <path d="M 518.092886 208.090313 
Q 568.74768 215.080251 618.294935 221.917357 
" clip-path="url(#p0f0fcebde9)" style="fill: none; stroke: #000000; stroke-linecap: round"/>
    <path d="M 614.605876 219.389346 
L 618.294935 221.917357 
L 614.059091 223.351798 
z
" clip-path="url(#p0f0fcebde9)" style="stroke: #000000; stroke-linecap: round"/>
   </g>
   <g id="patch_35">
    <path d="M 473.25207 213.993466 
Q 292.55809 290.150714 112.894376 365.873736 
" clip-path="url(#p0f0fcebde9)" style="fill: none; stroke: #000000; stroke-linecap: round"/>
    <path d="M 117.357134 366.163193 
L 112.894376 365.873736 
L 115.803597 362.477203 
z
" clip-path="url(#p0f0fcebde9)" style="stroke: #000000; stroke-linecap: round"/>
   </g>
   <g id="patch_36">
    <path d="M 400.769665 338.601639 
Q 435.689489 412.04653 470.129236 484.481704 
" clip-path="url(#p0f0fcebde9)" style="fill: none; stroke: #000000; stroke-linecap: round"/>
    <path d="M 470.2179 480.010447 
L 470.129236 484.481704 
L 466.605429 481.728019 
z
" clip-path="url(#p0f0fcebde9)" style="stroke: #000000; stroke-linecap: round"/>
   </g>
   <g id="patch_37">
    <path d="M 406.627956 300.210666 
Q 442.779291 261.154372 478.171158 222.918573 
" clip-path="url(#p0f0fcebde9)" style="fill: none; stroke: #000000; stroke-linecap: round"/>
    <path d="M 473.986263 224.495486 
L 478.171158 222.918573 
L 476.921752 227.212636 
z
" clip-path="url(#p0f0fcebde9)" style="stroke: #000000; stroke-linecap: round"/>
   </g>
   <g id="patch_38">
    <path d="M 375.725264 335.469691 
Q 315.985005 407.483732 256.958577 478.637283 
" clip-path="url(#p0f0fcebde9)" style="fill: none; stroke: #000000; stroke-linecap: round"/>
    <path d="M 261.051753 476.83564 
L 256.958577 478.637283 
L 257.973168 474.281757 
z
" clip-path="url(#p0f0fcebde9)" style="stroke: #000000; stroke-linecap: round"/>
   </g>
   <g id="patch_39">
    <path d="M 379.321569 337.924202 
Q 337.990627 412.412329 297.202136 485.922833 
" clip-path="url(#p0f0fcebde9)" style="fill: none; stroke: #000000; stroke-linecap: round"/>
    <path d="M 300.891691 483.395546 
L 297.202136 485.922833 
L 297.394039 481.454817 
z
" clip-path="url(#p0f0fcebde9)" style="stroke: #000000; stroke-linecap: round"/>
   </g>
   <g id="patch_40">
    <path d="M 367.393505 314.808496 
Q 244.541462 301.042446 122.800499 287.400896 
" clip-path="url(#p0f0fcebde9)" style="fill: none; stroke: #000000; stroke-linecap: round"/>
    <path d="M 126.552907 289.833885 
L 122.800499 287.400896 
L 126.998335 285.858763 
z
" clip-path="url(#p0f0fcebde9)" style="stroke: #000000; stroke-linecap: round"/>
   </g>
   <g id="patch_41">
    <path d="M 397.320378 294.925964 
Q 425.364936 199.658147 453.093767 105.462859 
" clip-path="url(#p0f0fcebde9)" style="fill: none; stroke: #000000; stroke-linecap: round"/>
    <path d="M 450.045593 108.735264 
L 453.093767 105.462859 
L 453.882786 109.864842 
z
" clip-path="url(#p0f0fcebde9)" style="stroke: #000000; stroke-linecap: round"/>
   </g>
   <g id="patch_42">
    <path d="M 410.600904 305.020532 
Q 505.331257 246.00198 599.112674 187.57463 
" clip-path="url(#p0f0fcebde9)" style="fill: none; stroke: #000000; stroke-linecap: round"/>
    <path d="M 594.660082 187.992272 
L 599.112674 187.57463 
L 596.775232 191.387289 
z
" clip-path="url(#p0f0fcebde9)" style="stroke: #000000; stroke-linecap: round"/>
   </g>
   <g id="patch_43">
    <path d="M 411.488304 328.277116 
Q 483.878012 366.081973 555.276692 403.369275 
" clip-path="url(#p0f0fcebde9)" style="fill: none; stroke: #000000; stroke-linecap: round"/>
    <path d="M 552.656913 399.744808 
L 555.276692 403.369275 
L 550.805252 403.290418 
z
" clip-path="url(#p0f0fcebde9)" style="stroke: #000000; stroke-linecap: round"/>
   </g>
   <g id="patch_44">
    <path d="M 288.947709 207.217124 
Q 307.192044 151.225076 325.090004 96.296054 
" clip-path="url(#p0f0fcebde9)" style="fill: none; stroke: #000000; stroke-linecap: round"/>
    <path d="M 321.949179 99.47964 
L 325.090004 96.296054 
L 325.752377 100.718866 
z
" clip-path="url(#p0f0fcebde9)" style="stroke: #000000; stroke-linecap: round"/>
   </g>
   <g id="patch_45">
    <path d="M 304.479824 224.004329 
Q 322.698575 219.59999 339.830596 215.458366 
" clip-path="url(#p0f0fcebde9)" style="fill: none; stroke: #000000; stroke-linecap: round"/>
    <path d="M 335.472636 214.45428 
L 339.830596 215.458366 
L 336.412552 218.342282 
z
" clip-path="url(#p0f0fcebde9)" style="stroke: #000000; stroke-linecap: round"/>
   </g>
   <g id="patch_46">
    <path d="M 304.975965 226.824286 
Q 388.27054 217.200511 470.454469 207.705059 
" clip-path="url(#p0f0fcebde9)" style="fill: none; stroke: #000000; stroke-linecap: round"/>
    <path d="M 466.251353 206.177378 
L 470.454469 207.705059 
L 466.710455 210.150944 
z
" clip-path="url(#p0f0fcebde9)" style="stroke: #000000; stroke-linecap: round"/>
   </g>
   <g id="patch_47">
    <path d="M 301.717425 241.70002 
Q 366.820812 281.292098 430.968941 320.303244 
" clip-path="url(#p0f0fcebde9)" style="fill: none; stroke: #000000; stroke-linecap: round"/>
    <path d="M 428.590509 316.51602 
L 430.968941 320.303244 
L 426.512103 319.933655 
z
" clip-path="url(#p0f0fcebde9)" style="stroke: #000000; stroke-linecap: round"/>
   </g>
   <g id="patch_48">
    <path d="M 289.604273 207.443043 
Q 291.045105 203.428674 292.108245 200.46661 
" clip-path="url(#p0f0fcebde9)" style="fill: none; stroke: #000000; stroke-linecap: round"/>
    <path d="M 288.874549 203.555819 
L 292.108245 200.46661 
L 292.639395 204.907092 
z
" clip-path="url(#p0f0fcebde9)" style="stroke: #000000; stroke-linecap: round"/>
   </g>
   <g id="patch_49">
    <path d="M 269.179448 86.101404 
Q 198.591951 119.28594 129.016255 151.994809 
" clip-path="url(#p0f0fcebde9)" style="fill: none; stroke: #000000; stroke-linecap: round"/>
    <path d="M 133.487082 152.102976 
L 129.016255 151.994809 
L 131.785284 148.483047 
z
" clip-path="url(#p0f0fcebde9)" style="stroke: #000000; stroke-linecap: round"/>
   </g>
   <g id="patch_50">
    <path d="M 299.403787 97.776718 
Q 340.550993 196.771339 381.26908 294.733557 
" clip-path="url(#p0f0fcebde9)" style="fill: none; stroke: #000000; stroke-linecap: round"/>
    <path d="M 381.580635 290.272286 
L 381.26908 294.733557 
L 377.886997 291.80755 
z
" clip-path="url(#p0f0fcebde9)" style="stroke: #000000; stroke-linecap: round"/>
   </g>
   <g id="patch_51">
    <path d="M 312.61563 83.635188 
Q 424.025965 121.311995 534.37719 158.630631 
" clip-path="url(#p0f0fcebde9)" style="fill: none; stroke: #000000; stroke-linecap: round"/>
    <path d="M 531.228718 155.454608 
L 534.37719 158.630631 
L 529.947289 159.243795 
z
" clip-path="url(#p0f0fcebde9)" style="stroke: #000000; stroke-linecap: round"/>
   </g>
   <g id="patch_52">
    <path d="M 289.072535 99.53398 
Q 286.042954 152.817023 283.07684 204.983834 
" clip-path="url(#p0f0fcebde9)" style="fill: none; stroke: #000000; stroke-linecap: round"/>
    <path d="M 285.300681 201.103818 
L 283.07684 204.983834 
L 281.307131 200.876751 
z
" clip-path="url(#p0f0fcebde9)" style="stroke: #000000; stroke-linecap: round"/>
   </g>
   <g id="PathCollection_1">
    <defs>
     <path id="m18dfe1f386" d="M 0 23.452079 
C 6.219564 23.452079 12.185228 20.98102 16.583124 16.583124 
C 20.98102 12.185228 23.452079 6.219564 23.452079 0 
C 23.452079 -6.219564 20.98102 -12.185228 16.583124 -16.583124 
C 12.185228 -20.98102 6.219564 -23.452079 0 -23.452079 
C -6.219564 -23.452079 -12.185228 -20.98102 -16.583124 -16.583124 
C -20.98102 -12.185228 -23.452079 -6.219564 -23.452079 0 
C -23.452079 6.219564 -20.98102 12.185228 -16.583124 16.583124 
C -12.185228 20.98102 -6.219564 23.452079 0 23.452079 
z
" style="stroke: #cfe8ff"/>
    </defs>
    <g clip-path="url(#p0f0fcebde9)">
     <use xlink:href="#m18dfe1f386" x="309.909513" y="229.926652" style="fill: #cfe8ff; stroke: #cfe8ff"/>
     <use xlink:href="#m18dfe1f386" x="425.917433" y="147.796286" style="fill: #cfe8ff; stroke: #cfe8ff"/>
     <use xlink:href="#m18dfe1f386" x="332.701532" y="72.936198" style="fill: #cfe8ff; stroke: #cfe8ff"/>
     <use xlink:href="#m18dfe1f386" x="363.711099" y="209.685312" style="fill: #cfe8ff; stroke: #cfe8ff"/>
     <use xlink:href="#m18dfe1f386" x="551.290136" y="375.905247" style="fill: #cfe8ff; stroke: #cfe8ff"/>
     <use xlink:href="#m18dfe1f386" x="451.963593" y="333.070965" style="fill: #cfe8ff; stroke: #cfe8ff"/>
     <use xlink:href="#m18dfe1f386" x="384.018802" y="128.208252" style="fill: #cfe8ff; stroke: #cfe8ff"/>
     <use xlink:href="#m18dfe1f386" x="90.255695" y="375.41528" style="fill: #cfe8ff; stroke: #cfe8ff"/>
     <use xlink:href="#m18dfe1f386" x="292.485938" y="199.414304" style="fill: #cfe8ff; stroke: #cfe8ff"/>
     <use xlink:href="#m18dfe1f386" x="557.649197" y="166.500771" style="fill: #cfe8ff; stroke: #cfe8ff"/>
     <use xlink:href="#m18dfe1f386" x="494.863547" y="204.884858" style="fill: #cfe8ff; stroke: #cfe8ff"/>
     <use xlink:href="#m18dfe1f386" x="390.698694" y="317.419933" style="fill: #cfe8ff; stroke: #cfe8ff"/>
     <use xlink:href="#m18dfe1f386" x="281.682004" y="229.515647" style="fill: #cfe8ff; stroke: #cfe8ff"/>
     <use xlink:href="#m18dfe1f386" x="290.403614" y="76.123517" style="fill: #cfe8ff; stroke: #cfe8ff"/>
     <use xlink:href="#m18dfe1f386" x="452.352667" y="475.544049" style="fill: #cfe8ff; stroke: #cfe8ff"/>
     <use xlink:href="#m18dfe1f386" x="201.050001" y="88.56305" style="fill: #cfe8ff; stroke: #cfe8ff"/>
     <use xlink:href="#m18dfe1f386" x="171.078376" y="145.738224" style="fill: #cfe8ff; stroke: #cfe8ff"/>
     <use xlink:href="#m18dfe1f386" x="71.404959" y="251.841034" style="fill: #cfe8ff; stroke: #cfe8ff"/>
     <use xlink:href="#m18dfe1f386" x="460.032248" y="81.892726" style="fill: #cfe8ff; stroke: #cfe8ff"/>
     <use xlink:href="#m18dfe1f386" x="619.967683" y="174.581619" style="fill: #cfe8ff; stroke: #cfe8ff"/>
     <use xlink:href="#m18dfe1f386" x="120.269696" y="220.593256" style="fill: #cfe8ff; stroke: #cfe8ff"/>
     <use xlink:href="#m18dfe1f386" x="421.206582" y="518.423802" style="fill: #cfe8ff; stroke: #cfe8ff"/>
     <use xlink:href="#m18dfe1f386" x="530.517343" y="113.806719" style="fill: #cfe8ff; stroke: #cfe8ff"/>
     <use xlink:href="#m18dfe1f386" x="197.740682" y="482.916435" style="fill: #cfe8ff; stroke: #cfe8ff"/>
     <use xlink:href="#m18dfe1f386" x="150.58547" y="418.846412" style="fill: #cfe8ff; stroke: #cfe8ff"/>
     <use xlink:href="#m18dfe1f386" x="603.478634" y="320.279432" style="fill: #cfe8ff; stroke: #cfe8ff"/>
     <use xlink:href="#m18dfe1f386" x="625.055644" y="404.133206" style="fill: #cfe8ff; stroke: #cfe8ff"/>
     <use xlink:href="#m18dfe1f386" x="97.175632" y="359.783009" style="fill: #cfe8ff; stroke: #cfe8ff"/>
     <use xlink:href="#m18dfe1f386" x="577.057324" y="414.744009" style="fill: #cfe8ff; stroke: #cfe8ff"/>
     <use xlink:href="#m18dfe1f386" x="328.629403" y="505.762224" style="fill: #cfe8ff; stroke: #cfe8ff"/>
     <use xlink:href="#m18dfe1f386" x="154.440228" y="458.346046" style="fill: #cfe8ff; stroke: #cfe8ff"/>
     <use xlink:href="#m18dfe1f386" x="372.442147" y="515.7475" style="fill: #cfe8ff; stroke: #cfe8ff"/>
     <use xlink:href="#m18dfe1f386" x="89.968539" y="324.859761" style="fill: #cfe8ff; stroke: #cfe8ff"/>
     <use xlink:href="#m18dfe1f386" x="527.026955" y="479.007872" style="fill: #cfe8ff; stroke: #cfe8ff"/>
     <use xlink:href="#m18dfe1f386" x="569.447522" y="453.320073" style="fill: #cfe8ff; stroke: #cfe8ff"/>
     <use xlink:href="#m18dfe1f386" x="648.595041" y="287.253295" style="fill: #cfe8ff; stroke: #cfe8ff"/>
     <use xlink:href="#m18dfe1f386" x="642.636596" y="225.276303" style="fill: #cfe8ff; stroke: #cfe8ff"/>
     <use xlink:href="#m18dfe1f386" x="480.67977" y="506.672047" style="fill: #cfe8ff; stroke: #cfe8ff"/>
     <use xlink:href="#m18dfe1f386" x="241.26993" y="497.549201" style="fill: #cfe8ff; stroke: #cfe8ff"/>
     <use xlink:href="#m18dfe1f386" x="285.282144" y="507.405478" style="fill: #cfe8ff; stroke: #cfe8ff"/>
     <use xlink:href="#m18dfe1f386" x="98.386956" y="284.665263" style="fill: #cfe8ff; stroke: #cfe8ff"/>
     <use xlink:href="#m18dfe1f386" x="106.780255" y="162.448379" style="fill: #cfe8ff; stroke: #cfe8ff"/>
    </g>
   </g>
   <g id="text_1">
    <g clip-path="url(#p0f0fcebde9)">
     <!-- B -->
     <g transform="translate(306.822091 232.264542) scale(0.09 -0.09)">
      <defs>
       <path id="DejaVuSans-25" d="M 1259 2228 
L 1259 519 
L 2272 519 
Q 2781 519 3026 730 
Q 3272 941 3272 1375 
Q 3272 1813 3026 2020 
Q 2781 2228 2272 2228 
L 1259 2228 
z
M 1259 4147 
L 1259 2741 
L 2194 2741 
Q 2656 2741 2882 2914 
Q 3109 3088 3109 3444 
Q 3109 3797 2882 3972 
Q 2656 4147 2194 4147 
L 1259 4147 
z
M 628 4666 
L 2241 4666 
Q 2963 4666 3353 4366 
Q 3744 4066 3744 3513 
Q 3744 3084 3544 2831 
Q 3344 2578 2956 2516 
Q 3422 2416 3680 2098 
Q 3938 1781 3938 1306 
Q 3938 681 3513 340 
Q 3088 0 2303 0 
L 628 0 
L 628 4666 
z
" transform="scale(0.015625)"/>
      </defs>
      <use xlink:href="#DejaVuSans-25"/>
     </g>
    </g>
   </g>
   <g id="text_2">
    <g clip-path="url(#p0f0fcebde9)">
     <!-- K_slt -->
     <g transform="translate(415.357901 150.134528) scale(0.09 -0.09)">
      <defs>
       <path id="DejaVuSans-2e" d="M 628 4666 
L 1259 4666 
L 1259 2694 
L 3353 4666 
L 4166 4666 
L 1850 2491 
L 4331 0 
L 3500 0 
L 1259 2247 
L 1259 0 
L 628 0 
L 628 4666 
z
" transform="scale(0.015625)"/>
       <path id="DejaVuSans-42" d="M 3263 -1063 
L 3263 -1509 
L -63 -1509 
L -63 -1063 
L 3263 -1063 
z
" transform="scale(0.015625)"/>
       <path id="DejaVuSans-56" d="M 2834 3397 
L 2834 2853 
Q 2591 2978 2328 3040 
Q 2066 3103 1784 3103 
Q 1356 3103 1142 2972 
Q 928 2841 928 2578 
Q 928 2378 1081 2264 
Q 1234 2150 1697 2047 
L 1894 2003 
Q 2506 1872 2764 1633 
Q 3022 1394 3022 966 
Q 3022 478 2636 193 
Q 2250 -91 1575 -91 
Q 1294 -91 989 -36 
Q 684 19 347 128 
L 347 722 
Q 666 556 975 473 
Q 1284 391 1588 391 
Q 1994 391 2212 530 
Q 2431 669 2431 922 
Q 2431 1156 2273 1281 
Q 2116 1406 1581 1522 
L 1381 1569 
Q 847 1681 609 1914 
Q 372 2147 372 2553 
Q 372 3047 722 3315 
Q 1072 3584 1716 3584 
Q 2034 3584 2315 3537 
Q 2597 3491 2834 3397 
z
" transform="scale(0.015625)"/>
       <path id="DejaVuSans-4f" d="M 603 4863 
L 1178 4863 
L 1178 0 
L 603 0 
L 603 4863 
z
" transform="scale(0.015625)"/>
       <path id="DejaVuSans-57" d="M 1172 4494 
L 1172 3500 
L 2356 3500 
L 2356 3053 
L 1172 3053 
L 1172 1153 
Q 1172 725 1289 603 
Q 1406 481 1766 481 
L 2356 481 
L 2356 0 
L 1766 0 
Q 1100 0 847 248 
Q 594 497 594 1153 
L 594 3053 
L 172 3053 
L 172 3500 
L 594 3500 
L 594 4494 
L 1172 4494 
z
" transform="scale(0.015625)"/>
      </defs>
      <use xlink:href="#DejaVuSans-2e"/>
      <use xlink:href="#DejaVuSans-42" transform="translate(65.578125 0)"/>
      <use xlink:href="#DejaVuSans-56" transform="translate(115.578125 0)"/>
      <use xlink:href="#DejaVuSans-4f" transform="translate(167.671875 0)"/>
      <use xlink:href="#DejaVuSans-57" transform="translate(195.453125 0)"/>
     </g>
    </g>
   </g>
   <g id="text_3">
    <g clip-path="url(#p0f0fcebde9)">
     <!-- K_st -->
     <g transform="translate(323.392157 75.274089) scale(0.09 -0.09)">
      <use xlink:href="#DejaVuSans-2e"/>
      <use xlink:href="#DejaVuSans-42" transform="translate(65.578125 0)"/>
      <use xlink:href="#DejaVuSans-56" transform="translate(115.578125 0)"/>
      <use xlink:href="#DejaVuSans-57" transform="translate(167.671875 0)"/>
     </g>
    </g>
   </g>
   <g id="text_4">
    <g clip-path="url(#p0f0fcebde9)">
     <!-- L -->
     <g transform="translate(361.203756 212.023202) scale(0.09 -0.09)">
      <defs>
       <path id="DejaVuSans-2f" d="M 628 4666 
L 1259 4666 
L 1259 531 
L 3531 531 
L 3531 0 
L 628 0 
L 628 4666 
z
" transform="scale(0.015625)"/>
      </defs>
      <use xlink:href="#DejaVuSans-2f"/>
     </g>
    </g>
   </g>
   <g id="text_5">
    <g clip-path="url(#p0f0fcebde9)">
     <!-- N_delta -->
     <g transform="translate(534.275918 378.243489) scale(0.09 -0.09)">
      <defs>
       <path id="DejaVuSans-31" d="M 628 4666 
L 1478 4666 
L 3547 763 
L 3547 4666 
L 4159 4666 
L 4159 0 
L 3309 0 
L 1241 3903 
L 1241 0 
L 628 0 
L 628 4666 
z
" transform="scale(0.015625)"/>
       <path id="DejaVuSans-47" d="M 2906 2969 
L 2906 4863 
L 3481 4863 
L 3481 0 
L 2906 0 
L 2906 525 
Q 2725 213 2448 61 
Q 2172 -91 1784 -91 
Q 1150 -91 751 415 
Q 353 922 353 1747 
Q 353 2572 751 3078 
Q 1150 3584 1784 3584 
Q 2172 3584 2448 3432 
Q 2725 3281 2906 2969 
z
M 947 1747 
Q 947 1113 1208 752 
Q 1469 391 1925 391 
Q 2381 391 2643 752 
Q 2906 1113 2906 1747 
Q 2906 2381 2643 2742 
Q 2381 3103 1925 3103 
Q 1469 3103 1208 2742 
Q 947 2381 947 1747 
z
" transform="scale(0.015625)"/>
       <path id="DejaVuSans-48" d="M 3597 1894 
L 3597 1613 
L 953 1613 
Q 991 1019 1311 708 
Q 1631 397 2203 397 
Q 2534 397 2845 478 
Q 3156 559 3463 722 
L 3463 178 
Q 3153 47 2828 -22 
Q 2503 -91 2169 -91 
Q 1331 -91 842 396 
Q 353 884 353 1716 
Q 353 2575 817 3079 
Q 1281 3584 2069 3584 
Q 2775 3584 3186 3129 
Q 3597 2675 3597 1894 
z
M 3022 2063 
Q 3016 2534 2758 2815 
Q 2500 3097 2075 3097 
Q 1594 3097 1305 2825 
Q 1016 2553 972 2059 
L 3022 2063 
z
" transform="scale(0.015625)"/>
       <path id="DejaVuSans-44" d="M 2194 1759 
Q 1497 1759 1228 1600 
Q 959 1441 959 1056 
Q 959 750 1161 570 
Q 1363 391 1709 391 
Q 2188 391 2477 730 
Q 2766 1069 2766 1631 
L 2766 1759 
L 2194 1759 
z
M 3341 1997 
L 3341 0 
L 2766 0 
L 2766 531 
Q 2569 213 2275 61 
Q 1981 -91 1556 -91 
Q 1019 -91 701 211 
Q 384 513 384 1019 
Q 384 1609 779 1909 
Q 1175 2209 1959 2209 
L 2766 2209 
L 2766 2266 
Q 2766 2663 2505 2880 
Q 2244 3097 1772 3097 
Q 1472 3097 1187 3025 
Q 903 2953 641 2809 
L 641 3341 
Q 956 3463 1253 3523 
Q 1550 3584 1831 3584 
Q 2591 3584 2966 3190 
Q 3341 2797 3341 1997 
z
" transform="scale(0.015625)"/>
      </defs>
      <use xlink:href="#DejaVuSans-31"/>
      <use xlink:href="#DejaVuSans-42" transform="translate(74.8125 0)"/>
      <use xlink:href="#DejaVuSans-47" transform="translate(124.8125 0)"/>
      <use xlink:href="#DejaVuSans-48" transform="translate(188.296875 0)"/>
      <use xlink:href="#DejaVuSans-4f" transform="translate(249.828125 0)"/>
      <use xlink:href="#DejaVuSans-57" transform="translate(277.609375 0)"/>
      <use xlink:href="#DejaVuSans-44" transform="translate(316.8125 0)"/>
     </g>
    </g>
   </g>
   <g id="text_6">
    <g clip-path="url(#p0f0fcebde9)">
     <!-- R_st -->
     <g transform="translate(442.478437 335.408856) scale(0.09 -0.09)">
      <defs>
       <path id="DejaVuSans-35" d="M 2841 2188 
Q 3044 2119 3236 1894 
Q 3428 1669 3622 1275 
L 4263 0 
L 3584 0 
L 2988 1197 
Q 2756 1666 2539 1819 
Q 2322 1972 1947 1972 
L 1259 1972 
L 1259 0 
L 628 0 
L 628 4666 
L 2053 4666 
Q 2853 4666 3247 4331 
Q 3641 3997 3641 3322 
Q 3641 2881 3436 2590 
Q 3231 2300 2841 2188 
z
M 1259 4147 
L 1259 2491 
L 2053 2491 
Q 2509 2491 2742 2702 
Q 2975 2913 2975 3322 
Q 2975 3731 2742 3939 
Q 2509 4147 2053 4147 
L 1259 4147 
z
" transform="scale(0.015625)"/>
      </defs>
      <use xlink:href="#DejaVuSans-35"/>
      <use xlink:href="#DejaVuSans-42" transform="translate(69.484375 0)"/>
      <use xlink:href="#DejaVuSans-56" transform="translate(119.484375 0)"/>
      <use xlink:href="#DejaVuSans-57" transform="translate(171.578125 0)"/>
     </g>
    </g>
   </g>
   <g id="text_7">
    <g clip-path="url(#p0f0fcebde9)">
     <!-- f -->
     <g transform="translate(382.434661 130.546495) scale(0.09 -0.09)">
      <defs>
       <path id="DejaVuSans-49" d="M 2375 4863 
L 2375 4384 
L 1825 4384 
Q 1516 4384 1395 4259 
Q 1275 4134 1275 3809 
L 1275 3500 
L 2222 3500 
L 2222 3053 
L 1275 3053 
L 1275 0 
L 697 0 
L 697 3053 
L 147 3053 
L 147 3500 
L 697 3500 
L 697 3744 
Q 697 4328 969 4595 
Q 1241 4863 1831 4863 
L 2375 4863 
z
" transform="scale(0.015625)"/>
      </defs>
      <use xlink:href="#DejaVuSans-49"/>
     </g>
    </g>
   </g>
   <g id="text_8">
    <g clip-path="url(#p0f0fcebde9)">
     <!-- sigma_U -->
     <g transform="translate(71.120148 377.753522) scale(0.09 -0.09)">
      <defs>
       <path id="DejaVuSans-4c" d="M 603 3500 
L 1178 3500 
L 1178 0 
L 603 0 
L 603 3500 
z
M 603 4863 
L 1178 4863 
L 1178 4134 
L 603 4134 
L 603 4863 
z
" transform="scale(0.015625)"/>
       <path id="DejaVuSans-4a" d="M 2906 1791 
Q 2906 2416 2648 2759 
Q 2391 3103 1925 3103 
Q 1463 3103 1205 2759 
Q 947 2416 947 1791 
Q 947 1169 1205 825 
Q 1463 481 1925 481 
Q 2391 481 2648 825 
Q 2906 1169 2906 1791 
z
M 3481 434 
Q 3481 -459 3084 -895 
Q 2688 -1331 1869 -1331 
Q 1566 -1331 1297 -1286 
Q 1028 -1241 775 -1147 
L 775 -588 
Q 1028 -725 1275 -790 
Q 1522 -856 1778 -856 
Q 2344 -856 2625 -561 
Q 2906 -266 2906 331 
L 2906 616 
Q 2728 306 2450 153 
Q 2172 0 1784 0 
Q 1141 0 747 490 
Q 353 981 353 1791 
Q 353 2603 747 3093 
Q 1141 3584 1784 3584 
Q 2172 3584 2450 3431 
Q 2728 3278 2906 2969 
L 2906 3500 
L 3481 3500 
L 3481 434 
z
" transform="scale(0.015625)"/>
       <path id="DejaVuSans-50" d="M 3328 2828 
Q 3544 3216 3844 3400 
Q 4144 3584 4550 3584 
Q 5097 3584 5394 3201 
Q 5691 2819 5691 2113 
L 5691 0 
L 5113 0 
L 5113 2094 
Q 5113 2597 4934 2840 
Q 4756 3084 4391 3084 
Q 3944 3084 3684 2787 
Q 3425 2491 3425 1978 
L 3425 0 
L 2847 0 
L 2847 2094 
Q 2847 2600 2669 2842 
Q 2491 3084 2119 3084 
Q 1678 3084 1418 2786 
Q 1159 2488 1159 1978 
L 1159 0 
L 581 0 
L 581 3500 
L 1159 3500 
L 1159 2956 
Q 1356 3278 1631 3431 
Q 1906 3584 2284 3584 
Q 2666 3584 2933 3390 
Q 3200 3197 3328 2828 
z
" transform="scale(0.015625)"/>
       <path id="DejaVuSans-38" d="M 556 4666 
L 1191 4666 
L 1191 1831 
Q 1191 1081 1462 751 
Q 1734 422 2344 422 
Q 2950 422 3222 751 
Q 3494 1081 3494 1831 
L 3494 4666 
L 4128 4666 
L 4128 1753 
Q 4128 841 3676 375 
Q 3225 -91 2344 -91 
Q 1459 -91 1007 375 
Q 556 841 556 1753 
L 556 4666 
z
" transform="scale(0.015625)"/>
      </defs>
      <use xlink:href="#DejaVuSans-56"/>
      <use xlink:href="#DejaVuSans-4c" transform="translate(52.09375 0)"/>
      <use xlink:href="#DejaVuSans-4a" transform="translate(79.875 0)"/>
      <use xlink:href="#DejaVuSans-50" transform="translate(143.359375 0)"/>
      <use xlink:href="#DejaVuSans-44" transform="translate(240.765625 0)"/>
      <use xlink:href="#DejaVuSans-42" transform="translate(302.046875 0)"/>
      <use xlink:href="#DejaVuSans-38" transform="translate(352.046875 0)"/>
     </g>
    </g>
   </g>
   <g id="text_9">
    <g clip-path="url(#p0f0fcebde9)">
     <!-- alpha -->
     <g transform="translate(280.011797 201.752546) scale(0.09 -0.09)">
      <defs>
       <path id="DejaVuSans-53" d="M 1159 525 
L 1159 -1331 
L 581 -1331 
L 581 3500 
L 1159 3500 
L 1159 2969 
Q 1341 3281 1617 3432 
Q 1894 3584 2278 3584 
Q 2916 3584 3314 3078 
Q 3713 2572 3713 1747 
Q 3713 922 3314 415 
Q 2916 -91 2278 -91 
Q 1894 -91 1617 61 
Q 1341 213 1159 525 
z
M 3116 1747 
Q 3116 2381 2855 2742 
Q 2594 3103 2138 3103 
Q 1681 3103 1420 2742 
Q 1159 2381 1159 1747 
Q 1159 1113 1420 752 
Q 1681 391 2138 391 
Q 2594 391 2855 752 
Q 3116 1113 3116 1747 
z
" transform="scale(0.015625)"/>
       <path id="DejaVuSans-4b" d="M 3513 2113 
L 3513 0 
L 2938 0 
L 2938 2094 
Q 2938 2591 2744 2837 
Q 2550 3084 2163 3084 
Q 1697 3084 1428 2787 
Q 1159 2491 1159 1978 
L 1159 0 
L 581 0 
L 581 4863 
L 1159 4863 
L 1159 2956 
Q 1366 3272 1645 3428 
Q 1925 3584 2291 3584 
Q 2894 3584 3203 3211 
Q 3513 2838 3513 2113 
z
" transform="scale(0.015625)"/>
      </defs>
      <use xlink:href="#DejaVuSans-44"/>
      <use xlink:href="#DejaVuSans-4f" transform="translate(61.28125 0)"/>
      <use xlink:href="#DejaVuSans-53" transform="translate(89.0625 0)"/>
      <use xlink:href="#DejaVuSans-4b" transform="translate(152.546875 0)"/>
      <use xlink:href="#DejaVuSans-44" transform="translate(215.921875 0)"/>
     </g>
    </g>
   </g>
   <g id="text_10">
    <g clip-path="url(#p0f0fcebde9)">
     <!-- h_l -->
     <g transform="translate(551.297166 168.839013) scale(0.09 -0.09)">
      <use xlink:href="#DejaVuSans-4b"/>
      <use xlink:href="#DejaVuSans-42" transform="translate(63.375 0)"/>
      <use xlink:href="#DejaVuSans-4f" transform="translate(113.375 0)"/>
     </g>
    </g>
   </g>
   <g id="text_11">
    <g clip-path="url(#p0f0fcebde9)">
     <!-- N_P -->
     <g transform="translate(486.533625 207.222749) scale(0.09 -0.09)">
      <defs>
       <path id="DejaVuSans-33" d="M 1259 4147 
L 1259 2394 
L 2053 2394 
Q 2494 2394 2734 2622 
Q 2975 2850 2975 3272 
Q 2975 3691 2734 3919 
Q 2494 4147 2053 4147 
L 1259 4147 
z
M 628 4666 
L 2053 4666 
Q 2838 4666 3239 4311 
Q 3641 3956 3641 3272 
Q 3641 2581 3239 2228 
Q 2838 1875 2053 1875 
L 1259 1875 
L 1259 0 
L 628 0 
L 628 4666 
z
" transform="scale(0.015625)"/>
      </defs>
      <use xlink:href="#DejaVuSans-31"/>
      <use xlink:href="#DejaVuSans-42" transform="translate(74.8125 0)"/>
      <use xlink:href="#DejaVuSans-33" transform="translate(124.8125 0)"/>
     </g>
    </g>
   </g>
   <g id="text_12">
    <g clip-path="url(#p0f0fcebde9)">
     <!-- h_c -->
     <g transform="translate(383.122522 319.758176) scale(0.09 -0.09)">
      <defs>
       <path id="DejaVuSans-46" d="M 3122 3366 
L 3122 2828 
Q 2878 2963 2633 3030 
Q 2388 3097 2138 3097 
Q 1578 3097 1268 2742 
Q 959 2388 959 1747 
Q 959 1106 1268 751 
Q 1578 397 2138 397 
Q 2388 397 2633 464 
Q 2878 531 3122 666 
L 3122 134 
Q 2881 22 2623 -34 
Q 2366 -91 2075 -91 
Q 1284 -91 818 406 
Q 353 903 353 1747 
Q 353 2603 823 3093 
Q 1294 3584 2113 3584 
Q 2378 3584 2631 3529 
Q 2884 3475 3122 3366 
z
" transform="scale(0.015625)"/>
      </defs>
      <use xlink:href="#DejaVuSans-4b"/>
      <use xlink:href="#DejaVuSans-42" transform="translate(63.375 0)"/>
      <use xlink:href="#DejaVuSans-46" transform="translate(113.375 0)"/>
     </g>
    </g>
   </g>
   <g id="text_13">
    <g clip-path="url(#p0f0fcebde9)">
     <!-- h_s -->
     <g transform="translate(274.23591 231.853889) scale(0.09 -0.09)">
      <use xlink:href="#DejaVuSans-4b"/>
      <use xlink:href="#DejaVuSans-42" transform="translate(63.375 0)"/>
      <use xlink:href="#DejaVuSans-56" transform="translate(113.375 0)"/>
     </g>
    </g>
   </g>
   <g id="text_14">
    <g clip-path="url(#p0f0fcebde9)">
     <!-- h -->
     <g transform="translate(287.551739 78.461759) scale(0.09 -0.09)">
      <use xlink:href="#DejaVuSans-4b"/>
     </g>
    </g>
   </g>
   <g id="text_15">
    <g clip-path="url(#p0f0fcebde9)">
     <!-- Q_b -->
     <g transform="translate(443.703526 477.882291) scale(0.09 -0.09)">
      <defs>
       <path id="DejaVuSans-34" d="M 2522 4238 
Q 1834 4238 1429 3725 
Q 1025 3213 1025 2328 
Q 1025 1447 1429 934 
Q 1834 422 2522 422 
Q 3209 422 3611 934 
Q 4013 1447 4013 2328 
Q 4013 3213 3611 3725 
Q 3209 4238 2522 4238 
z
M 3406 84 
L 4238 -825 
L 3475 -825 
L 2784 -78 
Q 2681 -84 2626 -87 
Q 2572 -91 2522 -91 
Q 1538 -91 948 567 
Q 359 1225 359 2328 
Q 359 3434 948 4092 
Q 1538 4750 2522 4750 
Q 3503 4750 4090 4092 
Q 4678 3434 4678 2328 
Q 4678 1516 4351 937 
Q 4025 359 3406 84 
z
" transform="scale(0.015625)"/>
       <path id="DejaVuSans-45" d="M 3116 1747 
Q 3116 2381 2855 2742 
Q 2594 3103 2138 3103 
Q 1681 3103 1420 2742 
Q 1159 2381 1159 1747 
Q 1159 1113 1420 752 
Q 1681 391 2138 391 
Q 2594 391 2855 752 
Q 3116 1113 3116 1747 
z
M 1159 2969 
Q 1341 3281 1617 3432 
Q 1894 3584 2278 3584 
Q 2916 3584 3314 3078 
Q 3713 2572 3713 1747 
Q 3713 922 3314 415 
Q 2916 -91 2278 -91 
Q 1894 -91 1617 61 
Q 1341 213 1159 525 
L 1159 0 
L 581 0 
L 581 4863 
L 1159 4863 
L 1159 2969 
z
" transform="scale(0.015625)"/>
      </defs>
      <use xlink:href="#DejaVuSans-34"/>
      <use xlink:href="#DejaVuSans-42" transform="translate(78.71875 0)"/>
      <use xlink:href="#DejaVuSans-45" transform="translate(128.71875 0)"/>
     </g>
    </g>
   </g>
   <g id="text_16">
    <g clip-path="url(#p0f0fcebde9)">
     <!-- R -->
     <g transform="translate(197.923204 90.900941) scale(0.09 -0.09)">
      <use xlink:href="#DejaVuSans-35"/>
     </g>
    </g>
   </g>
   <g id="text_17">
    <g clip-path="url(#p0f0fcebde9)">
     <!-- T -->
     <g transform="translate(168.329861 148.076114) scale(0.09 -0.09)">
      <defs>
       <path id="DejaVuSans-37" d="M -19 4666 
L 3928 4666 
L 3928 4134 
L 2272 4134 
L 2272 0 
L 1638 0 
L 1638 4134 
L -19 4134 
L -19 4666 
z
" transform="scale(0.015625)"/>
      </defs>
      <use xlink:href="#DejaVuSans-37"/>
     </g>
    </g>
   </g>
   <g id="text_18">
    <g clip-path="url(#p0f0fcebde9)">
     <!-- b_0 -->
     <g transform="translate(63.435037 254.179276) scale(0.09 -0.09)">
      <defs>
       <path id="DejaVuSans-13" d="M 2034 4250 
Q 1547 4250 1301 3770 
Q 1056 3291 1056 2328 
Q 1056 1369 1301 889 
Q 1547 409 2034 409 
Q 2525 409 2770 889 
Q 3016 1369 3016 2328 
Q 3016 3291 2770 3770 
Q 2525 4250 2034 4250 
z
M 2034 4750 
Q 2819 4750 3233 4129 
Q 3647 3509 3647 2328 
Q 3647 1150 3233 529 
Q 2819 -91 2034 -91 
Q 1250 -91 836 529 
Q 422 1150 422 2328 
Q 422 3509 836 4129 
Q 1250 4750 2034 4750 
z
" transform="scale(0.015625)"/>
      </defs>
      <use xlink:href="#DejaVuSans-45"/>
      <use xlink:href="#DejaVuSans-42" transform="translate(63.484375 0)"/>
      <use xlink:href="#DejaVuSans-13" transform="translate(113.484375 0)"/>
     </g>
    </g>
   </g>
   <g id="text_19">
    <g clip-path="url(#p0f0fcebde9)">
     <!-- k_l -->
     <g transform="translate(453.926311 84.230968) scale(0.09 -0.09)">
      <defs>
       <path id="DejaVuSans-4e" d="M 581 4863 
L 1159 4863 
L 1159 1991 
L 2875 3500 
L 3609 3500 
L 1753 1863 
L 3688 0 
L 2938 0 
L 1159 1709 
L 1159 0 
L 581 0 
L 581 4863 
z
" transform="scale(0.015625)"/>
      </defs>
      <use xlink:href="#DejaVuSans-4e"/>
      <use xlink:href="#DejaVuSans-42" transform="translate(57.90625 0)"/>
      <use xlink:href="#DejaVuSans-4f" transform="translate(107.90625 0)"/>
     </g>
    </g>
   </g>
   <g id="text_20">
    <g clip-path="url(#p0f0fcebde9)">
     <!-- k_s -->
     <g transform="translate(612.767683 176.919862) scale(0.09 -0.09)">
      <use xlink:href="#DejaVuSans-4e"/>
      <use xlink:href="#DejaVuSans-42" transform="translate(57.90625 0)"/>
      <use xlink:href="#DejaVuSans-56" transform="translate(107.90625 0)"/>
     </g>
    </g>
   </g>
   <g id="text_21">
    <g clip-path="url(#p0f0fcebde9)">
     <!-- k_t -->
     <g transform="translate(113.649774 222.931498) scale(0.09 -0.09)">
      <use xlink:href="#DejaVuSans-4e"/>
      <use xlink:href="#DejaVuSans-42" transform="translate(57.90625 0)"/>
      <use xlink:href="#DejaVuSans-57" transform="translate(107.90625 0)"/>
     </g>
    </g>
   </g>
   <g id="text_22">
    <g clip-path="url(#p0f0fcebde9)">
     <!-- l -->
     <g transform="translate(419.956425 520.762044) scale(0.09 -0.09)">
      <use xlink:href="#DejaVuSans-4f"/>
     </g>
    </g>
   </g>
   <g id="text_23">
    <g clip-path="url(#p0f0fcebde9)">
     <!-- m -->
     <g transform="translate(526.134062 116.14461) scale(0.09 -0.09)">
      <use xlink:href="#DejaVuSans-50"/>
     </g>
    </g>
   </g>
   <g id="text_24">
    <g clip-path="url(#p0f0fcebde9)">
     <!-- n -->
     <g transform="translate(194.888807 485.254325) scale(0.09 -0.09)">
      <defs>
       <path id="DejaVuSans-51" d="M 3513 2113 
L 3513 0 
L 2938 0 
L 2938 2094 
Q 2938 2591 2744 2837 
Q 2550 3084 2163 3084 
Q 1697 3084 1428 2787 
Q 1159 2491 1159 1978 
L 1159 0 
L 581 0 
L 581 3500 
L 1159 3500 
L 1159 2956 
Q 1366 3272 1645 3428 
Q 1925 3584 2291 3584 
Q 2894 3584 3203 3211 
Q 3513 2838 3513 2113 
z
" transform="scale(0.015625)"/>
      </defs>
      <use xlink:href="#DejaVuSans-51"/>
     </g>
    </g>
   </g>
   <g id="text_25">
    <g clip-path="url(#p0f0fcebde9)">
     <!-- delta_l -->
     <g transform="translate(135.687658 421.184654) scale(0.09 -0.09)">
      <use xlink:href="#DejaVuSans-47"/>
      <use xlink:href="#DejaVuSans-48" transform="translate(63.484375 0)"/>
      <use xlink:href="#DejaVuSans-4f" transform="translate(125.015625 0)"/>
      <use xlink:href="#DejaVuSans-57" transform="translate(152.796875 0)"/>
      <use xlink:href="#DejaVuSans-44" transform="translate(192 0)"/>
      <use xlink:href="#DejaVuSans-42" transform="translate(253.28125 0)"/>
      <use xlink:href="#DejaVuSans-4f" transform="translate(303.28125 0)"/>
     </g>
    </g>
   </g>
   <g id="text_26">
    <g clip-path="url(#p0f0fcebde9)">
     <!-- gamma -->
     <g transform="translate(586.339962 322.617323) scale(0.09 -0.09)">
      <use xlink:href="#DejaVuSans-4a"/>
      <use xlink:href="#DejaVuSans-44" transform="translate(63.484375 0)"/>
      <use xlink:href="#DejaVuSans-50" transform="translate(124.765625 0)"/>
      <use xlink:href="#DejaVuSans-50" transform="translate(222.171875 0)"/>
      <use xlink:href="#DejaVuSans-44" transform="translate(319.578125 0)"/>
     </g>
    </g>
   </g>
   <g id="text_27">
    <g clip-path="url(#p0f0fcebde9)">
     <!-- R_s -->
     <g transform="translate(617.334628 406.471097) scale(0.09 -0.09)">
      <use xlink:href="#DejaVuSans-35"/>
      <use xlink:href="#DejaVuSans-42" transform="translate(69.484375 0)"/>
      <use xlink:href="#DejaVuSans-56" transform="translate(119.484375 0)"/>
     </g>
    </g>
   </g>
   <g id="text_28">
    <g clip-path="url(#p0f0fcebde9)">
     <!-- R_t -->
     <g transform="translate(90.034695 362.120899) scale(0.09 -0.09)">
      <use xlink:href="#DejaVuSans-35"/>
      <use xlink:href="#DejaVuSans-42" transform="translate(69.484375 0)"/>
      <use xlink:href="#DejaVuSans-57" transform="translate(119.484375 0)"/>
     </g>
    </g>
   </g>
   <g id="text_29">
    <g clip-path="url(#p0f0fcebde9)">
     <!-- theta -->
     <g transform="translate(565.150605 417.082251) scale(0.09 -0.09)">
      <use xlink:href="#DejaVuSans-57"/>
      <use xlink:href="#DejaVuSans-4b" transform="translate(39.203125 0)"/>
      <use xlink:href="#DejaVuSans-48" transform="translate(102.578125 0)"/>
      <use xlink:href="#DejaVuSans-57" transform="translate(164.109375 0)"/>
      <use xlink:href="#DejaVuSans-44" transform="translate(203.3125 0)"/>
     </g>
    </g>
   </g>
   <g id="text_30">
    <g clip-path="url(#p0f0fcebde9)">
     <!-- x -->
     <g transform="translate(325.965965 508.100115) scale(0.09 -0.09)">
      <defs>
       <path id="DejaVuSans-5b" d="M 3513 3500 
L 2247 1797 
L 3578 0 
L 2900 0 
L 1881 1375 
L 863 0 
L 184 0 
L 1544 1831 
L 300 3500 
L 978 3500 
L 1906 2253 
L 2834 3500 
L 3513 3500 
z
" transform="scale(0.015625)"/>
      </defs>
      <use xlink:href="#DejaVuSans-5b"/>
     </g>
    </g>
   </g>
   <g id="text_31">
    <g clip-path="url(#p0f0fcebde9)">
     <!-- Q_sigma -->
     <g transform="translate(135.055775 460.684288) scale(0.09 -0.09)">
      <use xlink:href="#DejaVuSans-34"/>
      <use xlink:href="#DejaVuSans-42" transform="translate(78.71875 0)"/>
      <use xlink:href="#DejaVuSans-56" transform="translate(128.71875 0)"/>
      <use xlink:href="#DejaVuSans-4c" transform="translate(180.8125 0)"/>
      <use xlink:href="#DejaVuSans-4a" transform="translate(208.59375 0)"/>
      <use xlink:href="#DejaVuSans-50" transform="translate(272.078125 0)"/>
      <use xlink:href="#DejaVuSans-44" transform="translate(369.484375 0)"/>
     </g>
    </g>
   </g>
   <g id="text_32">
    <g clip-path="url(#p0f0fcebde9)">
     <!-- sigma_0 -->
     <g transform="translate(353.736913 518.085742) scale(0.09 -0.09)">
      <use xlink:href="#DejaVuSans-56"/>
      <use xlink:href="#DejaVuSans-4c" transform="translate(52.09375 0)"/>
      <use xlink:href="#DejaVuSans-4a" transform="translate(79.875 0)"/>
      <use xlink:href="#DejaVuSans-50" transform="translate(143.359375 0)"/>
      <use xlink:href="#DejaVuSans-44" transform="translate(240.765625 0)"/>
      <use xlink:href="#DejaVuSans-42" transform="translate(302.046875 0)"/>
      <use xlink:href="#DejaVuSans-13" transform="translate(352.046875 0)"/>
     </g>
    </g>
   </g>
   <g id="text_33">
    <g clip-path="url(#p0f0fcebde9)">
     <!-- c_p -->
     <g transform="translate(82.387445 327.197652) scale(0.09 -0.09)">
      <use xlink:href="#DejaVuSans-46"/>
      <use xlink:href="#DejaVuSans-42" transform="translate(54.984375 0)"/>
      <use xlink:href="#DejaVuSans-53" transform="translate(104.984375 0)"/>
     </g>
    </g>
   </g>
   <g id="text_34">
    <g clip-path="url(#p0f0fcebde9)">
     <!-- rho -->
     <g transform="translate(519.650471 481.346114) scale(0.09 -0.09)">
      <defs>
       <path id="DejaVuSans-55" d="M 2631 2963 
Q 2534 3019 2420 3045 
Q 2306 3072 2169 3072 
Q 1681 3072 1420 2755 
Q 1159 2438 1159 1844 
L 1159 0 
L 581 0 
L 581 3500 
L 1159 3500 
L 1159 2956 
Q 1341 3275 1631 3429 
Q 1922 3584 2338 3584 
Q 2397 3584 2469 3576 
Q 2541 3569 2628 3553 
L 2631 2963 
z
" transform="scale(0.015625)"/>
       <path id="DejaVuSans-52" d="M 1959 3097 
Q 1497 3097 1228 2736 
Q 959 2375 959 1747 
Q 959 1119 1226 758 
Q 1494 397 1959 397 
Q 2419 397 2687 759 
Q 2956 1122 2956 1747 
Q 2956 2369 2687 2733 
Q 2419 3097 1959 3097 
z
M 1959 3584 
Q 2709 3584 3137 3096 
Q 3566 2609 3566 1747 
Q 3566 888 3137 398 
Q 2709 -91 1959 -91 
Q 1206 -91 779 398 
Q 353 888 353 1747 
Q 353 2609 779 3096 
Q 1206 3584 1959 3584 
z
" transform="scale(0.015625)"/>
      </defs>
      <use xlink:href="#DejaVuSans-55"/>
      <use xlink:href="#DejaVuSans-4b" transform="translate(39.359375 0)"/>
      <use xlink:href="#DejaVuSans-52" transform="translate(102.734375 0)"/>
     </g>
    </g>
   </g>
   <g id="text_35">
    <g clip-path="url(#p0f0fcebde9)">
     <!-- omega -->
     <g transform="translate(553.927444 455.657963) scale(0.09 -0.09)">
      <use xlink:href="#DejaVuSans-52"/>
      <use xlink:href="#DejaVuSans-50" transform="translate(61.1875 0)"/>
      <use xlink:href="#DejaVuSans-48" transform="translate(158.59375 0)"/>
      <use xlink:href="#DejaVuSans-4a" transform="translate(220.125 0)"/>
      <use xlink:href="#DejaVuSans-44" transform="translate(283.609375 0)"/>
     </g>
    </g>
   </g>
   <g id="text_36">
    <g clip-path="url(#p0f0fcebde9)">
     <!-- P -->
     <g transform="translate(645.881682 289.591186) scale(0.09 -0.09)">
      <use xlink:href="#DejaVuSans-33"/>
     </g>
    </g>
   </g>
   <g id="text_37">
    <g clip-path="url(#p0f0fcebde9)">
     <!-- lamda -->
     <g transform="translate(628.631049 227.614545) scale(0.09 -0.09)">
      <use xlink:href="#DejaVuSans-4f"/>
      <use xlink:href="#DejaVuSans-44" transform="translate(27.78125 0)"/>
      <use xlink:href="#DejaVuSans-50" transform="translate(89.0625 0)"/>
      <use xlink:href="#DejaVuSans-47" transform="translate(186.46875 0)"/>
      <use xlink:href="#DejaVuSans-44" transform="translate(249.953125 0)"/>
     </g>
    </g>
   </g>
   <g id="text_38">
    <g clip-path="url(#p0f0fcebde9)">
     <!-- A -->
     <g transform="translate(477.601489 509.009937) scale(0.09 -0.09)">
      <defs>
       <path id="DejaVuSans-24" d="M 2188 4044 
L 1331 1722 
L 3047 1722 
L 2188 4044 
z
M 1831 4666 
L 2547 4666 
L 4325 0 
L 3669 0 
L 3244 1197 
L 1141 1197 
L 716 0 
L 50 0 
L 1831 4666 
z
" transform="scale(0.015625)"/>
      </defs>
      <use xlink:href="#DejaVuSans-24"/>
     </g>
    </g>
   </g>
   <g id="text_39">
    <g clip-path="url(#p0f0fcebde9)">
     <!-- beta -->
     <g transform="translate(231.12243 499.887443) scale(0.09 -0.09)">
      <use xlink:href="#DejaVuSans-45"/>
      <use xlink:href="#DejaVuSans-48" transform="translate(63.484375 0)"/>
      <use xlink:href="#DejaVuSans-57" transform="translate(125.015625 0)"/>
      <use xlink:href="#DejaVuSans-44" transform="translate(164.21875 0)"/>
     </g>
    </g>
   </g>
   <g id="text_40">
    <g clip-path="url(#p0f0fcebde9)">
     <!-- delta_c -->
     <g transform="translate(269.160191 509.74372) scale(0.09 -0.09)">
      <use xlink:href="#DejaVuSans-47"/>
      <use xlink:href="#DejaVuSans-48" transform="translate(63.484375 0)"/>
      <use xlink:href="#DejaVuSans-4f" transform="translate(125.015625 0)"/>
      <use xlink:href="#DejaVuSans-57" transform="translate(152.796875 0)"/>
      <use xlink:href="#DejaVuSans-44" transform="translate(192 0)"/>
      <use xlink:href="#DejaVuSans-42" transform="translate(253.28125 0)"/>
      <use xlink:href="#DejaVuSans-46" transform="translate(303.28125 0)"/>
     </g>
    </g>
   </g>
   <g id="text_41">
    <g clip-path="url(#p0f0fcebde9)">
     <!-- k_c -->
     <g transform="translate(91.056878 287.003506) scale(0.09 -0.09)">
      <use xlink:href="#DejaVuSans-4e"/>
      <use xlink:href="#DejaVuSans-42" transform="translate(57.90625 0)"/>
      <use xlink:href="#DejaVuSans-46" transform="translate(107.90625 0)"/>
     </g>
    </g>
   </g>
   <g id="text_42">
    <g clip-path="url(#p0f0fcebde9)">
     <!-- h_a -->
     <g transform="translate(98.920724 164.786621) scale(0.09 -0.09)">
      <use xlink:href="#DejaVuSans-4b"/>
      <use xlink:href="#DejaVuSans-42" transform="translate(63.375 0)"/>
      <use xlink:href="#DejaVuSans-44" transform="translate(113.375 0)"/>
     </g>
    </g>
   </g>
   <g id="text_43">
    <!-- h (Eq. 1) dependency graph -->
    <g transform="translate(276.04125 20.16) scale(0.12 -0.12)">
     <defs>
      <path id="DejaVuSans-3" transform="scale(0.015625)"/>
      <path id="DejaVuSans-b" d="M 1984 4856 
Q 1566 4138 1362 3434 
Q 1159 2731 1159 2009 
Q 1159 1288 1364 580 
Q 1569 -128 1984 -844 
L 1484 -844 
Q 1016 -109 783 600 
Q 550 1309 550 2009 
Q 550 2706 781 3412 
Q 1013 4119 1484 4856 
L 1984 4856 
z
" transform="scale(0.015625)"/>
      <path id="DejaVuSans-28" d="M 628 4666 
L 3578 4666 
L 3578 4134 
L 1259 4134 
L 1259 2753 
L 3481 2753 
L 3481 2222 
L 1259 2222 
L 1259 531 
L 3634 531 
L 3634 0 
L 628 0 
L 628 4666 
z
" transform="scale(0.015625)"/>
      <path id="DejaVuSans-54" d="M 947 1747 
Q 947 1113 1208 752 
Q 1469 391 1925 391 
Q 2381 391 2643 752 
Q 2906 1113 2906 1747 
Q 2906 2381 2643 2742 
Q 2381 3103 1925 3103 
Q 1469 3103 1208 2742 
Q 947 2381 947 1747 
z
M 2906 525 
Q 2725 213 2448 61 
Q 2172 -91 1784 -91 
Q 1150 -91 751 415 
Q 353 922 353 1747 
Q 353 2572 751 3078 
Q 1150 3584 1784 3584 
Q 2172 3584 2448 3432 
Q 2725 3281 2906 2969 
L 2906 3500 
L 3481 3500 
L 3481 -1331 
L 2906 -1331 
L 2906 525 
z
" transform="scale(0.015625)"/>
      <path id="DejaVuSans-11" d="M 684 794 
L 1344 794 
L 1344 0 
L 684 0 
L 684 794 
z
" transform="scale(0.015625)"/>
      <path id="DejaVuSans-14" d="M 794 531 
L 1825 531 
L 1825 4091 
L 703 3866 
L 703 4441 
L 1819 4666 
L 2450 4666 
L 2450 531 
L 3481 531 
L 3481 0 
L 794 0 
L 794 531 
z
" transform="scale(0.015625)"/>
      <path id="DejaVuSans-c" d="M 513 4856 
L 1013 4856 
Q 1481 4119 1714 3412 
Q 1947 2706 1947 2009 
Q 1947 1309 1714 600 
Q 1481 -109 1013 -844 
L 513 -844 
Q 928 -128 1133 580 
Q 1338 1288 1338 2009 
Q 1338 2731 1133 3434 
Q 928 4138 513 4856 
z
" transform="scale(0.015625)"/>
      <path id="DejaVuSans-5c" d="M 2059 -325 
Q 1816 -950 1584 -1140 
Q 1353 -1331 966 -1331 
L 506 -1331 
L 506 -850 
L 844 -850 
Q 1081 -850 1212 -737 
Q 1344 -625 1503 -206 
L 1606 56 
L 191 3500 
L 800 3500 
L 1894 763 
L 2988 3500 
L 3597 3500 
L 2059 -325 
z
" transform="scale(0.015625)"/>
     </defs>
     <use xlink:href="#DejaVuSans-4b"/>
     <use xlink:href="#DejaVuSans-3" transform="translate(63.375 0)"/>
     <use xlink:href="#DejaVuSans-b" transform="translate(95.15625 0)"/>
     <use xlink:href="#DejaVuSans-28" transform="translate(134.171875 0)"/>
     <use xlink:href="#DejaVuSans-54" transform="translate(197.359375 0)"/>
     <use xlink:href="#DejaVuSans-11" transform="translate(260.84375 0)"/>
     <use xlink:href="#DejaVuSans-3" transform="translate(292.625 0)"/>
     <use xlink:href="#DejaVuSans-14" transform="translate(324.40625 0)"/>
     <use xlink:href="#DejaVuSans-c" transform="translate(388.03125 0)"/>
     <use xlink:href="#DejaVuSans-3" transform="translate(427.046875 0)"/>
     <use xlink:href="#DejaVuSans-47" transform="translate(458.828125 0)"/>
     <use xlink:href="#DejaVuSans-48" transform="translate(522.3125 0)"/>
     <use xlink:href="#DejaVuSans-53" transform="translate(583.84375 0)"/>
     <use xlink:href="#DejaVuSans-48" transform="translate(647.328125 0)"/>
     <use xlink:href="#DejaVuSans-51" transform="translate(708.859375 0)"/>
     <use xlink:href="#DejaVuSans-47" transform="translate(772.234375 0)"/>
     <use xlink:href="#DejaVuSans-48" transform="translate(835.71875 0)"/>
     <use xlink:href="#DejaVuSans-51" transform="translate(897.25 0)"/>
     <use xlink:href="#DejaVuSans-46" transform="translate(960.625 0)"/>
     <use xlink:href="#DejaVuSans-5c" transform="translate(1015.609375 0)"/>
     <use xlink:href="#DejaVuSans-3" transform="translate(1074.796875 0)"/>
     <use xlink:href="#DejaVuSans-4a" transform="translate(1106.578125 0)"/>
     <use xlink:href="#DejaVuSans-55" transform="translate(1170.0625 0)"/>
     <use xlink:href="#DejaVuSans-44" transform="translate(1211.171875 0)"/>
     <use xlink:href="#DejaVuSans-53" transform="translate(1272.453125 0)"/>
     <use xlink:href="#DejaVuSans-4b" transform="translate(1335.9375 0)"/>
    </g>
   </g>
  </g>
 </g>
 <defs>
  <clipPath id="p0f0fcebde9">
   <rect x="10.8" y="26.16" width="698.4" height="539.04"/>
  </clipPath>
 </defs>
</svg>
